<mxfile host="app.diagrams.net" modified="2024-05-23T11:08:06.303Z" agent="Mozilla/5.0 (Windows NT 10.0; Win64; x64) AppleWebKit/537.36 (KHTML, like Gecko) Chrome/121.0.0.0 Safari/537.36" etag="6m45kn6NJfwyq8n10s_P" version="24.4.6" type="google">
  <diagram name="Página-1" id="yl4Ega3uo7GsnOfSFeJg">
    <mxGraphModel grid="1" page="1" gridSize="10" guides="1" tooltips="1" connect="1" arrows="1" fold="1" pageScale="1" pageWidth="827" pageHeight="1169" math="0" shadow="0">
      <root>
        <mxCell id="0" />
        <mxCell id="1" parent="0" />
        <mxCell id="L-nQFObd-4LmOGmvb_uD-4" style="edgeStyle=orthogonalEdgeStyle;rounded=0;orthogonalLoop=1;jettySize=auto;html=1;entryX=0.5;entryY=0;entryDx=0;entryDy=0;" edge="1" parent="1" source="L-nQFObd-4LmOGmvb_uD-2" target="L-nQFObd-4LmOGmvb_uD-3">
          <mxGeometry relative="1" as="geometry" />
        </mxCell>
        <mxCell id="L-nQFObd-4LmOGmvb_uD-2" value="Cadastro Produto" style="ellipse;whiteSpace=wrap;html=1;" vertex="1" parent="1">
          <mxGeometry x="80" y="70" width="120" height="80" as="geometry" />
        </mxCell>
        <mxCell id="L-nQFObd-4LmOGmvb_uD-8" style="edgeStyle=orthogonalEdgeStyle;rounded=0;orthogonalLoop=1;jettySize=auto;html=1;exitX=1;exitY=0.5;exitDx=0;exitDy=0;entryX=0.5;entryY=0;entryDx=0;entryDy=0;" edge="1" parent="1" source="L-nQFObd-4LmOGmvb_uD-3" target="L-nQFObd-4LmOGmvb_uD-7">
          <mxGeometry relative="1" as="geometry" />
        </mxCell>
        <mxCell id="L-nQFObd-4LmOGmvb_uD-25" style="edgeStyle=orthogonalEdgeStyle;rounded=0;orthogonalLoop=1;jettySize=auto;html=1;entryX=0.5;entryY=0;entryDx=0;entryDy=0;" edge="1" parent="1" source="L-nQFObd-4LmOGmvb_uD-3" target="L-nQFObd-4LmOGmvb_uD-5">
          <mxGeometry relative="1" as="geometry" />
        </mxCell>
        <mxCell id="L-nQFObd-4LmOGmvb_uD-3" value="Tem Cadastro?" style="rhombus;whiteSpace=wrap;html=1;" vertex="1" parent="1">
          <mxGeometry x="80" y="210" width="120" height="90" as="geometry" />
        </mxCell>
        <mxCell id="L-nQFObd-4LmOGmvb_uD-14" style="edgeStyle=orthogonalEdgeStyle;rounded=0;orthogonalLoop=1;jettySize=auto;html=1;entryX=0.5;entryY=0;entryDx=0;entryDy=0;" edge="1" parent="1" source="L-nQFObd-4LmOGmvb_uD-5" target="L-nQFObd-4LmOGmvb_uD-13">
          <mxGeometry relative="1" as="geometry" />
        </mxCell>
        <mxCell id="L-nQFObd-4LmOGmvb_uD-5" value="Listar" style="rounded=0;whiteSpace=wrap;html=1;" vertex="1" parent="1">
          <mxGeometry x="80" y="360" width="120" height="60" as="geometry" />
        </mxCell>
        <mxCell id="L-nQFObd-4LmOGmvb_uD-20" style="edgeStyle=orthogonalEdgeStyle;rounded=0;orthogonalLoop=1;jettySize=auto;html=1;entryX=0.5;entryY=0;entryDx=0;entryDy=0;" edge="1" parent="1" source="L-nQFObd-4LmOGmvb_uD-7" target="L-nQFObd-4LmOGmvb_uD-19">
          <mxGeometry relative="1" as="geometry" />
        </mxCell>
        <mxCell id="L-nQFObd-4LmOGmvb_uD-7" value="Criar cadastro (nome,telefone,&lt;div&gt;endereço)&lt;/div&gt;" style="rounded=0;whiteSpace=wrap;html=1;" vertex="1" parent="1">
          <mxGeometry x="260" y="300" width="120" height="60" as="geometry" />
        </mxCell>
        <mxCell id="L-nQFObd-4LmOGmvb_uD-28" style="edgeStyle=orthogonalEdgeStyle;rounded=0;orthogonalLoop=1;jettySize=auto;html=1;entryX=0.5;entryY=0;entryDx=0;entryDy=0;" edge="1" parent="1" source="L-nQFObd-4LmOGmvb_uD-13" target="L-nQFObd-4LmOGmvb_uD-26">
          <mxGeometry relative="1" as="geometry" />
        </mxCell>
        <mxCell id="L-nQFObd-4LmOGmvb_uD-13" value="Buscar Produto" style="rounded=0;whiteSpace=wrap;html=1;" vertex="1" parent="1">
          <mxGeometry x="80" y="470" width="120" height="60" as="geometry" />
        </mxCell>
        <mxCell id="L-nQFObd-4LmOGmvb_uD-15" value="não" style="text;html=1;align=center;verticalAlign=middle;resizable=0;points=[];autosize=1;strokeColor=none;fillColor=none;" vertex="1" parent="1">
          <mxGeometry x="200" y="258" width="40" height="30" as="geometry" />
        </mxCell>
        <mxCell id="L-nQFObd-4LmOGmvb_uD-21" value="sim" style="edgeStyle=orthogonalEdgeStyle;rounded=0;orthogonalLoop=1;jettySize=auto;html=1;entryX=1;entryY=0.5;entryDx=0;entryDy=0;" edge="1" parent="1" source="L-nQFObd-4LmOGmvb_uD-19" target="L-nQFObd-4LmOGmvb_uD-5">
          <mxGeometry relative="1" as="geometry" />
        </mxCell>
        <mxCell id="L-nQFObd-4LmOGmvb_uD-19" value="Dados&lt;div&gt;válidos?&lt;/div&gt;" style="rhombus;whiteSpace=wrap;html=1;" vertex="1" parent="1">
          <mxGeometry x="280" y="390" width="80" height="80" as="geometry" />
        </mxCell>
        <mxCell id="L-nQFObd-4LmOGmvb_uD-23" value="não" style="edgeStyle=orthogonalEdgeStyle;rounded=0;orthogonalLoop=1;jettySize=auto;html=1;entryX=1.008;entryY=0.383;entryDx=0;entryDy=0;entryPerimeter=0;" edge="1" parent="1" source="L-nQFObd-4LmOGmvb_uD-19" target="L-nQFObd-4LmOGmvb_uD-7">
          <mxGeometry x="0.0841" relative="1" as="geometry">
            <Array as="points">
              <mxPoint x="400" y="430" />
              <mxPoint x="400" y="323" />
            </Array>
            <mxPoint as="offset" />
          </mxGeometry>
        </mxCell>
        <mxCell id="L-nQFObd-4LmOGmvb_uD-26" value="Apagar Produto" style="rounded=0;whiteSpace=wrap;html=1;" vertex="1" parent="1">
          <mxGeometry x="20" y="570" width="120" height="60" as="geometry" />
        </mxCell>
        <mxCell id="L-nQFObd-4LmOGmvb_uD-31" style="edgeStyle=orthogonalEdgeStyle;rounded=0;orthogonalLoop=1;jettySize=auto;html=1;entryX=0;entryY=0.5;entryDx=0;entryDy=0;" edge="1" parent="1" source="L-nQFObd-4LmOGmvb_uD-27" target="L-nQFObd-4LmOGmvb_uD-30">
          <mxGeometry relative="1" as="geometry">
            <mxPoint x="360" y="600" as="targetPoint" />
          </mxGeometry>
        </mxCell>
        <mxCell id="L-nQFObd-4LmOGmvb_uD-27" value="Atualizar Produto" style="rounded=0;whiteSpace=wrap;html=1;" vertex="1" parent="1">
          <mxGeometry x="170" y="570" width="120" height="60" as="geometry" />
        </mxCell>
        <mxCell id="L-nQFObd-4LmOGmvb_uD-29" style="edgeStyle=orthogonalEdgeStyle;rounded=0;orthogonalLoop=1;jettySize=auto;html=1;exitX=0.75;exitY=1;exitDx=0;exitDy=0;entryX=0.433;entryY=0.017;entryDx=0;entryDy=0;entryPerimeter=0;" edge="1" parent="1" source="L-nQFObd-4LmOGmvb_uD-13" target="L-nQFObd-4LmOGmvb_uD-27">
          <mxGeometry relative="1" as="geometry" />
        </mxCell>
        <mxCell id="L-nQFObd-4LmOGmvb_uD-33" value="sim" style="edgeStyle=orthogonalEdgeStyle;rounded=0;orthogonalLoop=1;jettySize=auto;html=1;entryX=1;entryY=0.5;entryDx=0;entryDy=0;" edge="1" parent="1" source="L-nQFObd-4LmOGmvb_uD-30" target="L-nQFObd-4LmOGmvb_uD-2">
          <mxGeometry relative="1" as="geometry">
            <Array as="points">
              <mxPoint x="490" y="600" />
              <mxPoint x="490" y="110" />
            </Array>
          </mxGeometry>
        </mxCell>
        <mxCell id="L-nQFObd-4LmOGmvb_uD-35" value="não" style="edgeStyle=orthogonalEdgeStyle;rounded=0;orthogonalLoop=1;jettySize=auto;html=1;entryX=0.5;entryY=1;entryDx=0;entryDy=0;" edge="1" parent="1" source="L-nQFObd-4LmOGmvb_uD-30" target="L-nQFObd-4LmOGmvb_uD-27">
          <mxGeometry relative="1" as="geometry">
            <Array as="points">
              <mxPoint x="400" y="690" />
              <mxPoint x="230" y="690" />
            </Array>
          </mxGeometry>
        </mxCell>
        <mxCell id="L-nQFObd-4LmOGmvb_uD-30" value="Dados Válidos?" style="rhombus;whiteSpace=wrap;html=1;" vertex="1" parent="1">
          <mxGeometry x="360" y="560" width="80" height="80" as="geometry" />
        </mxCell>
      </root>
    </mxGraphModel>
  </diagram>
</mxfile>
